<?xml version="1.0" encoding="UTF-8"?>
<svg id="Camada_1" xmlns="http://www.w3.org/2000/svg" version="1.1" xmlns:xlink="http://www.w3.org/1999/xlink" viewBox="0 0 595.28 841.89">
  <!-- Generator: Adobe Illustrator 29.6.1, SVG Export Plug-In . SVG Version: 2.1.1 Build 9)  -->
  <defs>
    <style>
      .st0 {
        fill: #010101;
      }

      .st1 {
        fill: #fff;
      }

      .st2 {
        fill: #fbfbfb;
      }

      .st3 {
        fill: url(#Gradiente_sem_nome_352);
      }

      .st4 {
        fill: url(#Gradiente_sem_nome_389);
      }

      .st5 {
        fill: #f8f8f8;
      }
    </style>
    <linearGradient id="Gradiente_sem_nome_389" data-name="Gradiente sem nome 389" x1="20.19" y1="456.72" x2="512.95" y2="554.25" gradientUnits="userSpaceOnUse">
      <stop offset="0" stop-color="#fff"/>
      <stop offset=".15" stop-color="#23bf0b"/>
      <stop offset=".95" stop-color="#1abc01"/>
    </linearGradient>
    <linearGradient id="Gradiente_sem_nome_352" data-name="Gradiente sem nome 352" x1="214.76" y1="299.4" x2="397.78" y2="299.4" gradientUnits="userSpaceOnUse">
      <stop offset="0" stop-color="#fff"/>
      <stop offset="0" stop-color="#f9fdee"/>
      <stop offset=".03" stop-color="#fcfef6"/>
      <stop offset=".04" stop-color="#f9fdf3"/>
      <stop offset=".08" stop-color="#cff1c5"/>
      <stop offset=".12" stop-color="#a9e69c"/>
      <stop offset=".17" stop-color="#86db77"/>
      <stop offset=".22" stop-color="#68d356"/>
      <stop offset=".27" stop-color="#4fcb3b"/>
      <stop offset=".34" stop-color="#3bc625"/>
      <stop offset=".41" stop-color="#2bc114"/>
      <stop offset=".51" stop-color="#20be08"/>
      <stop offset=".64" stop-color="#1abc01"/>
      <stop offset="1" stop-color="#19bc00"/>
    </linearGradient>
  </defs>
  <path d="M424.28,335.21"/>
  <g>
    <path class="st4" d="M32.13,441.65c19.33-36.85,38.67-73.69,58-110.54,6.87,39.73,13.74,79.45,20.61,119.18,9.54-1.26,19.07-2.52,28.61-3.79-2.37-3.78-4.75-7.56-7.12-11.33,27.95-10.47,55.91-20.95,83.86-31.42-1.75-15.04-3.5-30.09-5.25-45.13l89.68,102.78,88.05-68.96c-3.23,8.67-6.46,17.34-9.68,26.02,11.42,6.95,22.83,13.91,34.25,20.86-7.04-12.79-14.07-25.57-21.11-38.36,21.3,4.74,42.6,9.48,63.91,14.22,4.24,6.13,8.48,12.26,12.72,18.38,32.43-24.98,64.86-49.97,97.29-74.95-23.28,38.73-46.57,77.47-69.85,116.2,24.58,63.89,49.16,127.77,73.74,191.66-38.07-47.7-76.13-95.4-114.2-143.1-27.04,30.79-54.08,61.58-81.12,92.37,2.41-26.97,4.83-53.94,7.24-80.91-32.41,11.24-64.81,22.49-97.22,33.73,2.08-3.95,4.17-7.91,6.25-11.86-20.76-5.95-41.52-11.9-62.28-17.85-7.28,30.63-14.57,61.27-21.85,91.9-32.88,16.5-65.77,32.99-98.65,49.49-25.29-79.53-50.58-159.06-75.87-238.59h0ZM358.05,441.96c2.86-4.11,6.53-8.1,8.21-12.98-2.21.88-3.67,2.89-5.59,4.21-8.77,6.01-16.86,13.42-25.43,20.22-12.12,9.62-24.52,18.95-36.66,28.54l-52.3-59.63,48.19,113,6.07-9.09c19.75-27.39,38.18-56.53,57.52-84.27h0Z"/>
    <path d="M149.97,443.85c24.35-7.52,48.7-15.04,73.05-22.56-6.23,6.87-12.45,13.75-18.68,20.62-6.49,2.51-12.99,5.02-19.48,7.52,23.25,24.02,46.5,48.04,69.75,72.05-16.75-26.53-33.51-53.05-50.26-79.58,6.23-6.87,12.45-13.75,18.68-20.62,22.06,41.1,44.13,82.21,66.19,123.31-18.76-6.96-37.53-13.92-56.29-20.88-27.65-26.63-55.3-53.25-82.95-79.88v.02Z"/>
    <path d="M358.05,441.96c-19.34,27.74-37.76,56.88-57.52,84.27l-6.07,9.09-48.19-113,52.3,59.63c12.14-9.59,24.54-18.93,36.66-28.54,8.57-6.8,16.66-14.22,25.43-20.22,1.92-1.31,3.39-3.33,5.59-4.21-1.68,4.87-5.35,8.87-8.21,12.98h.01Z"/>
  </g>
  <path d="M383.58,431.72c15.3,14.27,30.59,28.53,45.89,42.8-10.65-.13-21.3-.27-31.96-.4-3.56-3.73-7.11-7.45-10.67-11.18-16.12,20.52-32.23,41.05-48.35,61.57,19.67-16.8,39.35-33.59,59.02-50.39,10.65.13,21.3.27,31.96.4-23.04,19.14-46.09,38.28-69.13,57.42-20.38,7.73-40.76,15.46-61.14,23.2,28.13-41.14,56.26-82.28,84.38-123.42h0Z"/>
  <path d="M217.09,529.17c-8.3-7.83-16.61-15.67-24.91-23.5-8.75,11.78-17.49,23.55-26.24,35.33-5.5-11.98-11-23.95-16.5-35.92,10.54-5.03,21.08-10.06,31.62-15.1-3.89-2.34-7.78-4.69-11.67-7.03-8.55,3.19-17.09,6.38-25.64,9.57-2.34-6.31-4.67-12.61-7.01-18.92,10.19-.24,20.38-.48,30.57-.72-5.78-5.45-11.56-10.9-17.34-16.35-11.73.29-23.45.59-35.18.88,10.33,42.61,20.66,85.22,31,127.83,23.77-18.69,47.53-37.39,71.3-56.08h0Z"/>
  <path d="M533.52,605.47c-19.81-44.53-39.62-89.05-59.43-133.58,18.76-24.43,37.51-48.86,56.27-73.29-21.21,18.93-42.41,37.85-63.62,56.78-4.02-9.04-8.04-18.08-12.06-27.12-16.1-5.34-32.2-10.67-48.29-16.01,13.4,20.37,26.81,40.74,40.21,61.11-17.9,15.97-35.8,31.95-53.69,47.92-1.52,20.75-3.03,41.51-4.55,62.26,23.47-30.56,46.94-61.13,70.41-91.69,24.92,37.87,49.84,75.75,74.75,113.62h0Z"/>
  <path class="st1" d="M99.04,376.05"/>
  <path d="M214.58,547.12c-4.95,24.03-9.9,48.07-14.85,72.1-27.26,13.64-54.52,27.28-81.78,40.91-21.94-70.63-43.89-141.26-65.83-211.9,10.07-23.64,20.13-47.28,30.2-70.92,19.18,77.59,38.35,155.19,57.53,232.78,24.91-21,49.82-41.99,74.73-62.99v.02Z"/>
  <g>
    <g>
      <path class="st3" d="M307.04,386.47c-7.21,0-10.19-1.3-12.14-2.57-1.72-1.12-3.22-2.51-4.49-4.16-4.07-1.04-8.08-2.34-11.97-3.87-4.37-1.73-8.64-3.77-12.75-6.1-.31.23-.64.44-.96.65-3.42,2.17-7.69,3.37-12,3.37-6.28,0-11.01-2.51-12.64-6.72-1.13-2.9-.37-5.35.36-6.9-.98.2-1.86.31-2.66.31-3.73,0-5.71-2.01-6.57-3.2-2.43-3.41-.99-6.91-.45-8.22.29-.71.4-1.01.4-1.33,0-.24-.07-.47-.43-1.32-1.67-3.95-2.36-5.58-4.89-9.72-6.12-9.95-7.58-25.48.11-31.83,1.15-.95,2.32-1.54,3.34-1.9-.07-.26-.14-.52-.2-.75-.38-1.4-.84-3.09-.99-4.91-5.62-2.33-11.9-7.28-10.19-13.64,1.04-3.86,4.14-5.16,6.39-5.64-3.8-2.09-6.74-5.25-8.31-8.24-2.16-4.14-.99-7.1-.1-8.51,1.31-2.04,3.56-3.26,6.03-3.26,1.22,0,2.19.29,2.97.51.63.18,1.13.33,1.71.33.16,0,.32,0,.49-.03.93-.12,2.63-1.31,5.56-3.38,1.26-.89,2.15-1.59,2.91-2.2-4.32-4.36-6.86-9.95-7.15-13.92-.31-4.06,1.54-6.35,2.68-7.35,1.38-1.22,3.15-1.89,5-1.89,2.4,0,4.21,1.06,5.79,2,1.58.92,3.37,1.98,5.91,2.22.31.03.59.04.87.04,1.21,0,2.2-.29,4.32-.94,1.53-.47,3.44-1.06,5.91-1.61.68-.15,1.37-.29,2.06-.42-.95-2.97-1.11-5.89-.6-7.97.79-3.3,2.98-4.71,4.22-5.25.91-.4,1.87-.61,2.86-.61,3.45,0,5.39,2.33,6.32,3.45.5.6.93,1.12,1.49,1.44.32.18.65.29,1.36.29s1.59-.1,2.6-.24c1.2-.15,2.56-.31,4.06-.35h.61c3.05,0,6.12.56,9.19,1.67.48-1.08,1.08-2.16,1.84-3.23,3.86-5.42,10.37-8.24,14.8-8.24,3.74,0,5.7,1.98,6.53,3.16,1.01,1.43,2.24,4.25.19,7.89.39.42.83.92,1.28,1.48,2.13-1.03,4.32-1.77,6.57-2.21,1.61-.31,3.21-.47,4.87-.47,1.1,0,2.08.06,2.93.12.7.04,1.3.09,1.87.09.72,0,1.55-.05,2.77-.47,1.35-.45,2.36-1.06,3.32-1.64,1.4-.85,3.16-1.91,5.53-1.91,1.66,0,3.23.53,4.55,1.53,1.25.95,3.9,3.66,2.95,9.02,3.49.4,6.69,1.39,9.55,2.96,1.06.58,2.01,1.2,2.93,1.81,2.27,1.48,3.62,2.33,5.23,2.33h.23c1.01-.05,1.88-.4,2.79-.76,1.08-.44,2.43-.97,4.11-.97,2.15,0,4.18.92,5.56,2.52.86,1,2.24,3.18,1.69,6.52-.57,3.44-3.29,7.56-6.87,10.77,1.55,1.36,2.59,2.56,3.39,3.51,1.03,1.2,1.3,1.49,2.1,1.88,1.27.63,2.46.72,3.56.72.39,0,.75,0,1.08-.02.4,0,.77-.02,1.09-.02,5.67,0,7.42,3.65,7.92,5.22.44,1.4.84,4.22-1.46,7.35-.92,1.26-2.29,2.54-3.96,3.66.16.19.31.4.45.63,3.38,5.16.03,11.93-4.5,16.03-1.1.99-2.32,1.87-3.66,2.63-.31,2.09-1.05,4.09-1.66,5.74-.11.31-.25.68-.38,1.06,2.06.24,4.6.93,6.92,2.96,4.02,3.51,5.5,9.14,4.41,16.77-.84,5.85-3.36,10.14-5.8,14.27-1.55,2.63-3.02,5.13-4.16,8.16-.7,1.84-.7,2.4-.65,2.81.05.43.21.8.41,1.33.51,1.31,1.88,4.77-.57,8.14-.85,1.18-2.84,3.14-6.52,3.14h-.08c.14.79.17,1.67,0,2.63-1.01,5.85-7.79,8.46-14.05,8.46-4.14,0-7.89-1.16-10.86-3.36-3.6,2.26-7.35,4.29-11.21,6.06-2.94,1.35-5.98,2.56-9.05,3.61-.77,1.52-1.75,2.87-2.94,4.06-2.49,2.48-6.23,4.25-16.41,4.86-1.67.1-3.23.15-4.64.15l-.03-.03Z"/>
      <path class="st1" d="M224.47,310.81"/>
    </g>
    <g>
      <g>
        <path class="st0" d="M236.67,353.38c-.62-.87,1.22-2.56,1.19-5.74-.02-1.54-.46-2.7-.95-3.85-1.7-4.03-2.56-6.05-5.37-10.63-4.69-7.64-5.76-19.52-1.33-23.17,2.05-1.69,3.84-.44,5.3-2.29,2.93-3.7-2.73-10.62,0-13.98,1.72-2.12,5.95-1.32,5.94-1.44,0-.13-4.62.81-9.3-.65-4.2-1.3-8.26-4.47-7.78-6.26.46-1.72,4.53-.04,9.11-3.04,4.78-3.13,7.01-9.32,7.46-10.56.24-.65.4-1.21.51-1.59-.93.85-4.2,3.61-8.71,3.45-7.07-.25-12.02-7.51-11.22-8.77.47-.73,2.63,1.08,6.46.57,2.56-.34,4.6-1.75,8.54-4.55,4.41-3.12,4.94-4.22,7.75-5.5,2.67-1.22,5.12-1.58,6.69-1.69-1.96-.24-4.8-.86-7.61-2.67-6.51-4.2-9.53-12.55-7.84-14.05,1.38-1.22,4.55,3.32,11.64,3.99,4.73.44,6.86-1.24,13.18-2.64,3.7-.82,9.05-1.59,15.86-1.16-1.32-.27-4.53-1.13-6.83-3.99-2.8-3.47-3.11-8.46-2.09-8.92.79-.35,1.69,2.3,4.67,3.99,3.79,2.15,7.34.67,11.47.57,3.55-.09,8.57.81,14.8,5.3-.2-1.44-.61-5.84,2.13-9.68,3.34-4.68,9.67-6.18,10.41-5.12.52.74-2.13,2.22-1.86,4.8.22,2.04,2.06,2.68,4.44,6.02,1.12,1.57,1.82,3,2.25,3.98,3.95-3.24,7.47-4.43,9.97-4.93,5.46-1.07,7.9.86,13.29-.95,4.35-1.46,6.14-3.85,7.21-3.04,1.24.94.08,5.12-2.02,7.89-2.07,2.71-4.85,3.82-6.26,4.26,11-3.36,17.56-1.84,21.6.38,3.44,1.88,6.7,5.18,11.92,4.95,4.06-.19,6.33-2.38,7.08-1.52,1.06,1.22-2.26,7.01-7.46,10.06-2.97,1.74-5.9,2.22-7.82,2.35,4.21,1.1,7.35,2.84,9.72,4.68,4.05,3.15,4.3,5.39,7.97,7.21,5.27,2.62,9.81.51,10.25,1.9.49,1.56-4.74,5.95-10.63,5.89-3.87-.04-6.76-1.99-8.09-3.04,3.08,6.8,6.39,8.81,8.84,9.4,2.66.65,4.86-.25,5.7,1.03,1.05,1.6-.92,5.17-3.39,7.41-4.49,4.06-11.16,4.15-11.14,4.25.02.08,3.49-1.4,4.86-.08,2.64,2.56-4.75,11.8-1.71,15.56,1.96,2.43,6.15-.08,9.3,2.66,3.32,2.89,2.44,8.92,2.18,10.77-1.13,7.83-6.39,12.5-9.61,21.03-.89,2.36-1.27,4.08-1.02,6.03.34,2.62,1.61,3.93,1.07,4.67-.46.64-2.16.76-7.78-1.68-1.43,1.99-2.67,4.5-1.97,6.83.59,1.99,2.15,2.37,1.97,3.42-.41,2.36-9.13,4.74-14.36.85-1.54-1.14-2.4-2.55-2.84-3.42-4.01,2.88-9.05,6-15.12,8.79-4.06,1.86-7.9,3.25-11.36,4.31-.31,1.24-.98,3.12-2.56,4.7-.83.83-2.7,2.36-12.08,2.91-9.5.57-11.81-.76-12.73-1.35-2.12-1.39-3.35-3.22-4.02-4.45-4.06-.92-8.68-2.25-13.64-4.21-6.47-2.56-11.86-5.51-16.14-8.24-.74.99-1.9,2.29-3.6,3.38-5.58,3.54-13.74,2.66-14.81-.12-.64-1.65,1.65-2.84,1.58-5.81-.07-2.83-2.22-5.12-4.27-6.74-5.06,2.06-6.56,1.87-6.98,1.28v.02Z"/>
        <path class="st2" d="M260.2,334.79c0-.05-.27-.17-.28-.28.1.09.19.18.28.28Z"/>
        <path class="st1" d="M276.06,278.27h5.46c.82,1.28,1.97,3.38,2.66,6.16,1.47,5.97-.86,8.56.38,12.53,2.07,6.58,11.78,9.92,13.09,8.44.92-1.02-2.9-3.57-3-8.83-.1-4.71,2.9-6.38,2.43-10.44-.33-2.93-2.25-5.32-4.55-7.21,5.44-.13,10.88-.25,16.32-.38-1.46,4.37-3.32,12.45.38,19.93,2.37,4.81,6.89,9.06,8.16,8.36.66-.37,0-1.88,0-6.26,0-2.66,0-5.16.95-7.78.85-2.36,1.59-2.43,3.6-5.7,3.33-5.4,3.59-8.92,4.5-8.81,1.01.11,2.02,4.55,1.2,9-1.27,6.79-6.08,9.66-5.12,11.01,1.02,1.45,7.76-.12,11.77-4.75,2.5-2.88,3.24-6.12,3.5-7.97.03,1.72.3,4.31,1.63,7.02,2.73,5.56,8.82,9.47,10.72,8.17,1.47-1-.71-4.34,0-9.87.59-4.63,2.87-8.22,4.84-10.63-1.04,2.33-3.01,7.7-1.54,14.05.47,2.02,1.2,3.73,1.92,5.09,5.06-.79,7.11.21,8,1.39,2.09,2.76-1.75,7.96-2.22,19.04-.08,1.87-.78,6.85,2.04,6.26,1.25-.26,3.42-3.95,4.41-5.12,2.06-2.44,4.26-5.02,7.01-6.7,2.91-1.77,7.1-3.79,8.45.72,2.72,9.13-8.1,26.22-15.33,31.55-2.41,1.78-5.73,3.55-8.81,3.35-.47-.45,2.79-4.38.72-5.89-1.39-1.01-2.46,1.36-3.07,2.28-2.76,4.16-3.61,6.42-5.48,8.54-.92,1.05-2.09,2.34-6.35,4.81-7.24,4.2-15.12,7.23-20.26,9.01-2.82-1.07-7.55-2.45-13.49-2.29-7.04.18-12.38,2.43-15.21,3.87-2-.42-5.16-1.14-8.95-2.35-13.18-4.2-20.4-7.58-25.07-13.79-1.3-1.74-4.93-9.85-6.51-10.29-.47-.13-.69-.03-1.07.23-2.02,1.32,1.19,5.44.72,5.89-2.08.17-4.24-.67-6.05-1.63-7.98-4.22-16.9-18.25-18.19-27.11-1.15-7.91,1.47-11.56,8.96-6.72.92.59,3.41,2.45,4.07,3.2,1.95,2.25,3.59,7.4,5.51,9.3,1.58,1.56,3.12.51,3.22-1.51.04-.92-.3-1.68-.31-2.51-.09-4.39-.4-8.79-.28-13.16.18-6.62.18-7.07.64-7.75,2.21-3.29,7.56-3.29,10-3.15.34-1.5.74-3.73.86-6.46.29-6.67-1.34-11.82-.86-11.96.53-.15,1.04,6.36,5.79,9.49,2.5,1.65,4,.92,6.65,3.04,3.21,2.56,3.31,5.46,4.41,5.34,1.65-.18,3.36-6.8,1.47-12.75-1.13-3.52-3.25-5.93-4.7-7.29h0ZM343.99,303.91c-.88-.78-2.78.05-4.4.79-8.83,4.05-12.13,6.85-19.03,10.99-2.85,1.72-6.54,3.79-7.14,6.88-.08.39-.33,1.72.36,2.31.51.44,1.47.44,3.18-.31,7.03-3.03,14.54-13.18,23.62-13.88.9-.07,1.64-.03,2.13,0,.55-1.11,2.67-5.57,1.27-6.81h0ZM351.54,306.75c-.15-.55-.87-.54-2.37-1.21-2.09-.94-2.65-1.87-3.15-1.55-.58.38-.09,1.61-.43,3.54-.26,1.48-.88,2.63-1.38,3.37.81-.12,1.79-.15,2.83.14.86.24,1.15.52,1.64.38.69-.21.65-.94,1.59-2.5.86-1.41,1.42-1.67,1.28-2.18h0ZM350.13,311.78c.8.09,1.74.18,2.77.29,2.23.21,2.87.24,3.32-.22.36-.35.58-.95.45-1.47-.18-.73-.96-.76-2.34-2.14-.34-.34-.36-.41-.5-.45-.94-.3-2.49,1.9-3.73,3.99h0ZM297.47,330.95c.39-.32,1.68-.14.78-1.35-.51-.68-7.73-3.26-9.1-3.76-9.17-3.32-20.41-6.72-30.01-8.3-1.39-.23-5.04-1.28-5.53.46-.57,2.04,4.54,2.42,5.77,2.94,3.05,9.14,8.27,15.81,18.11,17.68,6.94,1.32,13.91,1.57,18.36-4.69.39-.56,1.43-2.81,1.64-2.98h0ZM358.01,316.96c-2.94.16-7.27,1.39-10.24,2.08-9.25,2.15-20.77,5.35-29.4,9.19-.79.35-3.41,1.13-3.08,2.22,1.61.65,1.86,2.24,2.84,3.6,3.51,4.86,7.76,5.56,13.51,5.22,11.27-.66,17.94-5.83,22.17-16.14.26-.63.27-1.88.62-2.18.59-.51,7.68-1.01,5.44-3.48-.58-.65-1.1-.54-1.86-.51h0ZM243.7,338.14c-.87.88,6.13,8.87,8.79,4.17,3.23-5.74-9.05-9.06-9.07-11.3-.02-1.33,2.84-.92,3.09-2.23.72-3.77-6.98-9.74-10.34-7.82-.65.37-.82,1.54-.44,2.09.16.23,4.15,1.74,5,2.27.36.23,2.94,2.16,2.99,2.35.24.79-1.9,1.53-2.19,2.84-.91,4.08,6.75,5.47,8.39,8.55.38.71.83,2.12-.46,2.15-1.17.03-5.24-3.57-5.74-3.07h0ZM370.09,328.35c-.39-.53,2.42-2.56,2.87-2.85,1.16-.77,5.01-2.16,5.32-2.81.29-.61-.08-1.42-.65-1.73-3.4-1.81-10.92,4.03-10.34,7.53.31,1.87,3.64.99,3.03,2.75s-6.91,4.09-8.51,6.6c-1,1.57-1.4,3.18-.22,4.77,2.05,2.77,5.48.06,7.12-1.8.2-.23,2.33-3.04.98-2.66-.85.24-7.9,5.98-5.81.91,1.26-3.04,9.92-4.32,8.31-9-.25-.73-1.3-1.54-2.09-1.69h0ZM305.42,336.25c-1.76.3-7.45,3.52-6.87,5.6s4.85-1.47,6.12-1.88c1.81-.59,2.87-.56,4.66.08,1.24.44,4.24,2.77,5.21,2.53,2.35-.58-1.07-3.74-1.95-4.38-2.03-1.47-4.62-2.37-7.15-1.95Z"/>
        <path class="st0" d="M273.75,305.4c6.29,2.52,11.57,5.01,15.73,7.12,4.14,2.1,8.7,4.6,10.27,8.85.24.65,1.06,2.85.19,3.62-.45.4-1.32.4-2.76-.22-3.88-1.67-8.84-5.93-12.76-8.21-1.54-.89-2.87-1.53-3.49-1.81-2.86-1.35-5.34-2.18-7.05-2.69.17-1.42.23-3.07.08-4.88-.05-.62-.12-1.21-.21-1.78h0Z"/>
        <path class="st0" d="M271.94,311.55c-4.21-1.53-7.33-1.32-9.51-.74-2.43.65-4.1,1.88-4.68,1.25-.66-.72.51-3.21,2.14-4.81,2-1.95,4.62-2.53,6.82-2.7.57-.04,1.21-.05,1.21-.05.69,0,1.86.02,2.24.12,1.22.31,1.83,3.29,1.78,6.94h0Z"/>
        <path class="st0" d="M297.47,330.95c-.2.17-1.24,2.43-1.64,2.98-4.44,6.26-11.42,6.01-18.36,4.69-9.84-1.88-15.06-8.54-18.11-17.68-1.23-.52-6.33-.9-5.77-2.94.49-1.74,4.14-.69,5.53-.46,9.61,1.58,20.85,4.97,30.01,8.3,1.37.5,8.59,3.08,9.1,3.76.91,1.21-.38,1.03-.78,1.35h0ZM290.98,329.22c-.1.06-.59,1.41-1,1.93-5.19,6.56-14.14,1.83-16.88-4.66-.28-.65-.67-2.58-.87-2.76-.38-.33-9.41-2.43-9.79-2.09,1.16,5.58,5.18,10.94,10.56,13.08,4.27,1.69,11.36,2.49,15.64.68,1.04-.44,5.58-4.07,5.96-4.95.21-.49-.19-.37-.38-.44-.51-.2-2.86-1-3.22-.78h0Z"/>
        <path class="st0" d="M358.01,316.96c.76-.04,1.27-.15,1.86.51,2.22,2.46-4.86,2.96-5.44,3.48-.35.31-.36,1.54-.62,2.18-4.23,10.31-10.91,15.48-22.17,16.14-5.75.34-10.01-.36-13.51-5.22-.98-1.36-1.23-2.95-2.84-3.6-.33-1.09,2.29-1.87,3.08-2.22,8.64-3.84,20.15-7.04,29.4-9.19,2.98-.69,7.3-1.92,10.24-2.08h0ZM351.35,321.64l-9.73,2.01c-.69,7.55-11.96,14.84-17.54,7.78-.43-.55-1.02-2.09-1.44-2.22-.64-.2-2.71.7-3.45.95,1.83,1.95,4.11,4.71,6.77,5.54,4.41,1.37,10.8.66,15.04-1.06,5.3-2.17,9.24-7.42,10.35-13Z"/>
        <path class="st0" d="M350.75,336.81c.55.29-.4,3.75-2.06,6.63-2.5,4.34-6.16,6.57-8.14,7.75-5.5,3.27-10.8,3.78-13.25,3.86-7.05.24-13.3-2.23-13.18-2.96.1-.63,4.83.85,11.93-.24,2.37-.37,13.46-2.06,20.68-10.37,2.04-2.36,3.51-4.92,4.01-4.66h0Z"/>
        <path class="st0" d="M370.09,328.35c.78.15,1.82.96,2.09,1.69,1.61,4.68-7.05,5.96-8.31,9-2.09,5.09,4.96-.66,5.81-.91,1.35-.39-.78,2.43-.98,2.66-1.64,1.85-5.07,4.57-7.12,1.8-1.18-1.6-.79-3.21.22-4.77,1.61-2.5,7.88-4.79,8.51-6.6s-2.71-.89-3.03-2.75c-.58-3.5,6.94-9.34,10.34-7.53.58.31.93,1.12.65,1.73-.31.65-4.15,2.05-5.32,2.81-.45.3-3.26,2.32-2.87,2.85h0Z"/>
        <path class="st0" d="M243.7,338.14c.5-.5,4.57,3.1,5.74,3.07,1.29-.03.85-1.44.46-2.15-1.64-3.08-9.29-4.47-8.39-8.55.29-1.32,2.43-2.05,2.19-2.84-.05-.18-2.63-2.12-2.99-2.35-.85-.53-4.84-2.04-5-2.27-.38-.56-.21-1.73.44-2.09,3.36-1.92,11.05,4.04,10.34,7.82-.25,1.31-3.1.91-3.09,2.23.03,2.24,12.31,5.56,9.07,11.3-2.64,4.7-9.66-3.29-8.79-4.17h0Z"/>
        <path class="st0" d="M305.42,336.25c2.54-.43,5.12.47,7.15,1.95.88.64,4.3,3.8,1.95,4.38-.96.24-3.96-2.09-5.21-2.53-1.79-.64-2.85-.67-4.66-.08-1.27.42-5.55,3.97-6.12,1.88s5.11-5.3,6.87-5.6Z"/>
        <path class="st5" d="M290.98,329.22c.35-.23,2.7.58,3.22.78.19.08.59-.04.38.44-.38.87-4.92,4.51-5.96,4.95-4.29,1.81-11.38,1.01-15.64-.68-5.37-2.13-9.39-7.49-10.56-13.08.38-.33,9.41,1.76,9.79,2.09.2.17.6,2.11.87,2.76,2.74,6.5,11.69,11.22,16.88,4.66.41-.52.92-1.88,1-1.93h0Z"/>
        <path class="st5" d="M351.35,321.64c-1.11,5.57-5.04,10.83-10.35,13-4.24,1.73-10.63,2.44-15.04,1.06-2.66-.83-4.93-3.58-6.77-5.54.73-.24,2.81-1.15,3.45-.95.42.13,1.01,1.67,1.44,2.22,5.57,7.06,16.85-.24,17.54-7.78l9.73-2.01Z"/>
      </g>
      <g>
        <circle cx="364.27" cy="348.97" r="3.67"/>
        <circle class="st2" cx="364.27" cy="348.97" r="1.99"/>
      </g>
      <g>
        <circle cx="249.34" cy="348.97" r="3.67"/>
        <circle class="st2" cx="249.34" cy="348.97" r="1.99"/>
      </g>
    </g>
  </g>
</svg>